<?xml version="1.0" encoding="utf-8"?>
<!-- Generator: Adobe Illustrator 24.0.0, SVG Export Plug-In . SVG Version: 6.00 Build 0)  -->
<svg version="1.1" id="Layer_1" xmlns="http://www.w3.org/2000/svg" xmlns:xlink="http://www.w3.org/1999/xlink" x="0px" y="0px"
	 viewBox="0 0 1024 301.4" style="enable-background:new 0 0 1024 301.4;" xml:space="preserve">
<style type="text/css">
	.st0{fill:#231F20;}
</style>
<g>
	<g>
		<polygon class="st0" points="150.1,196.4 115.9,62.3 80.9,62.3 133.9,239.9 166.3,239.9 220.1,62.3 183.4,62.3 		"/>
		<polygon class="st0" points="536,62.3 501,62.3 500.9,239.9 610.2,239.9 610.2,210 536,210 		"/>
		<polygon class="st0" points="723,194.7 688.8,62.3 652.9,62.3 706.7,239.9 738.3,239.9 792.1,62.3 756.3,62.3 		"/>
		<path class="st0" d="M939.8,85.4V62.3h-74.3v121.3h74.3v-23.1c0,0-31.9,0-47.8,0c0-8.8,0-17.7,0-26.5c14.5,0,29,0,43.5,0
			c0-7.6,0-15.4,0-23c-14.5,0-29,0-43.5,0c0-8.6,0-25.6,0-25.6H939.8L939.8,85.4z"/>
		<path class="st0" d="M322.6,62.3l-50.4,176.8c0,0,26,0.8,36.7,0c1.9-7.8,11.1-43.5,11.1-43.5h52.9l12,44.4h35.9L370.4,62.4h-47.8
			V62.3z M326.9,167.3l18.8-75.1l20.5,75.1H326.9z"/>
	</g>
</g>
</svg>
